<svg width="36" height="35" viewBox="0 0 36 35" fill="none" xmlns="http://www.w3.org/2000/svg">
<g clip-path="url(#clip0_1_1147)">
<path fill-rule="evenodd" clip-rule="evenodd" d="M30.8801 16.8547C31.0243 16.9989 31.1053 17.1945 31.1053 17.3984C31.1053 17.6024 31.0243 17.798 30.8801 17.9422L24.3554 24.4668C24.2112 24.611 24.0157 24.692 23.8117 24.692C23.6078 24.692 23.4122 24.611 23.268 24.4668C23.1238 24.3226 23.0428 24.127 23.0428 23.9231C23.0428 23.7192 23.1238 23.5236 23.268 23.3794L28.4801 18.1673L6.41261 18.1683C6.20841 18.1683 6.01258 18.0872 5.8682 17.9428C5.72381 17.7985 5.6427 17.6026 5.6427 17.3984C5.6427 17.1942 5.72381 16.9984 5.8682 16.854C6.01258 16.7096 6.20841 16.6285 6.41261 16.6285L28.4801 16.6296L23.268 11.4175C23.1238 11.2733 23.0428 11.0777 23.0428 10.8738C23.0428 10.6698 23.1238 10.4743 23.268 10.33C23.4122 10.1858 23.6078 10.1048 23.8117 10.1048C24.0157 10.1048 24.2112 10.1858 24.3554 10.33L30.8801 16.8547Z" fill="#FF5C00"/>
</g>
<defs>
<clipPath id="clip0_1_1147">
<rect width="24.6061" height="24.6061" fill="white" transform="translate(35.7734 17.3984) rotate(135)"/>
</clipPath>
</defs>
</svg>
