<svg width="36" height="35" viewBox="0 0 36 35" fill="none" xmlns="http://www.w3.org/2000/svg">
<g clip-path="url(#clip0_1_1136)">
<path fill-rule="evenodd" clip-rule="evenodd" d="M5.11989 17.9431C4.97569 17.7989 4.89468 17.6033 4.89468 17.3994C4.89468 17.1955 4.97569 16.9999 5.11989 16.8557L11.6446 10.331C11.7888 10.1868 11.9843 10.1058 12.1883 10.1058C12.3922 10.1058 12.5878 10.1868 12.732 10.331C12.8762 10.4752 12.9572 10.6708 12.9572 10.8747C12.9572 11.0787 12.8762 11.2743 12.732 11.4185L7.51988 16.6306L29.5874 16.6295C29.7916 16.6295 29.9874 16.7106 30.1318 16.855C30.2762 16.9994 30.3573 17.1952 30.3573 17.3994C30.3573 17.6036 30.2762 17.7994 30.1318 17.9438C29.9874 18.0882 29.7916 18.1693 29.5874 18.1693L7.51988 18.1682L12.732 23.3804C12.8762 23.5246 12.9572 23.7201 12.9572 23.9241C12.9572 24.128 12.8762 24.3236 12.732 24.4678C12.5878 24.612 12.3922 24.693 12.1883 24.693C11.9843 24.693 11.7888 24.612 11.6446 24.4678L5.11989 17.9431Z" fill="#FF5C00"/>
</g>
<defs>
<clipPath id="clip0_1_1136">
<rect x="0.226562" y="17.3994" width="24.6061" height="24.6061" transform="rotate(-45 0.226562 17.3994)" fill="white"/>
</clipPath>
</defs>
</svg>
