<svg width="107" height="107" viewBox="0 0 107 107" fill="none" xmlns="http://www.w3.org/2000/svg">
<circle cx="53.5" cy="53.5" r="53.5" fill="white"/>
<circle cx="53.4993" cy="53.5002" r="42.9309" stroke="#FF8C8D" stroke-width="2"/>
<circle cx="53.5009" cy="53.4999" r="31.622" stroke="#FF5152" stroke-width="2"/>
<path d="M66.8657 60.2683C64.9076 60.2683 62.9897 59.9626 61.172 59.3628C60.2849 59.057 59.2775 59.2926 58.6944 59.8874L55.0908 62.6089C50.9559 60.402 48.3095 57.7573 46.1327 53.6524L48.7807 50.134C49.4473 49.4674 49.6862 48.4917 49.4005 47.5779C48.7957 45.7485 48.4883 43.8289 48.4883 41.8742C48.4883 40.4925 47.364 39.3682 45.9823 39.3682H40.1349C38.7532 39.3682 37.6289 40.4925 37.6289 41.8742C37.6289 57.9945 50.7454 71.1109 66.8657 71.1109C68.2473 71.1109 69.3717 69.9866 69.3717 68.6049V62.7743C69.3717 61.3926 68.2473 60.2683 66.8657 60.2683Z" fill="#FF6464"/>
</svg>
