<svg width="24" height="25" viewBox="0 0 24 25" fill="none" xmlns="http://www.w3.org/2000/svg">
<path d="M9.66442 14.4461C7.44943 12.2311 6.9493 10.0161 6.83647 9.12868C6.80494 8.8833 6.88938 8.63722 7.06493 8.4629L8.8574 6.67122C9.12108 6.40771 9.16787 5.99704 8.97023 5.68096L6.11628 1.24939C5.89763 0.899392 5.44868 0.773076 5.0796 0.957708L0.497987 3.11548C0.199531 3.26244 0.0239837 3.57955 0.05787 3.91049C0.297934 6.1911 1.2922 11.7974 6.80166 17.3072C12.3111 22.8171 17.9166 23.811 20.1984 24.051C20.5294 24.0849 20.8465 23.9094 20.9934 23.6109L23.1512 19.0293C23.3351 18.661 23.2097 18.2133 22.8611 17.9942L18.4295 15.1411C18.1137 14.9432 17.703 14.9897 17.4393 15.2531L15.6476 17.0456C15.4733 17.2211 15.2272 17.3056 14.9818 17.274C14.0944 17.1612 11.8794 16.6611 9.66442 14.4461Z" fill="white"/>
<path d="M18.4604 13.2538C18.0185 13.2538 17.6602 12.8955 17.6602 12.4536C17.6565 9.14055 14.9716 6.45574 11.6586 6.45199C11.2167 6.45199 10.8584 6.09372 10.8584 5.65177C10.8584 5.20983 11.2167 4.85156 11.6586 4.85156C15.8552 4.85619 19.256 8.25702 19.2606 12.4536C19.2606 12.8955 18.9024 13.2538 18.4604 13.2538Z" fill="white"/>
<path d="M22.4615 13.2529C22.0195 13.2529 21.6613 12.8946 21.6613 12.4527C21.6551 6.93094 17.1804 2.45621 11.6586 2.45003C11.2167 2.45003 10.8584 2.09177 10.8584 1.64982C10.8584 1.20788 11.2167 0.849609 11.6586 0.849609C18.0639 0.856666 23.2546 6.04741 23.2617 12.4527C23.2617 12.6649 23.1774 12.8685 23.0273 13.0185C22.8772 13.1686 22.6737 13.2529 22.4615 13.2529Z" fill="white"/>
</svg>
