<svg width="59" height="59" viewBox="0 0 59 59" fill="none" xmlns="http://www.w3.org/2000/svg">
<path d="M49.654 11.0625H8.11682C5.67449 11.0625 3.6875 13.0643 3.6875 15.5249V45.7699C3.6875 48.2305 5.67449 50.2323 8.11682 50.2323H22.9991L21.701 56.0251H15.4728V59H42.298V56.0251H36.0699L34.7717 50.2323H49.654C52.0963 50.2323 54.0833 48.2305 54.0833 45.7699V15.5249C54.0833 13.0643 52.0963 11.0625 49.654 11.0625ZM8.11682 14.0374H49.654C50.4681 14.0374 51.1305 14.7047 51.1305 15.5249V39.3243H6.64038V15.5249C6.64038 14.7047 7.30271 14.0374 8.11682 14.0374ZM31.7445 50.2323L33.0427 56.0251H24.7283L26.0264 50.2323H31.7445ZM49.654 47.2574H8.11682C7.30271 47.2574 6.64038 46.5901 6.64038 45.7699V42.2992H51.1305V45.7699C51.1305 46.5901 50.4681 47.2574 49.654 47.2574Z" fill="#FF5C00"/>
<path d="M23.3535 29.193L28.914 35.6462L41.791 19.667" stroke="#FF5C00" stroke-width="3" stroke-linecap="round" stroke-linejoin="round"/>
</svg>
