<svg width="28" height="27" viewBox="0 0 28 27" fill="none" xmlns="http://www.w3.org/2000/svg">
<path d="M25.7845 10.3132C25.3359 9.92063 24.8312 9.47197 24.6629 9.13548C24.4947 8.79899 24.5507 8.06993 24.6068 7.45303C24.6629 6.21922 24.7751 4.87326 23.8217 3.91987C22.8683 2.96648 21.5223 3.07864 20.2885 3.13472C19.6716 3.19081 18.9426 3.19081 18.6061 3.07864C18.2696 2.96648 17.8209 2.40566 17.4283 1.957C16.6432 1.11578 15.6898 -0.00585938 14.2878 -0.00585938C12.8857 -0.00585938 11.9323 1.11578 11.1472 1.957C10.7546 2.40566 10.306 2.9104 9.96946 3.07864C9.63297 3.24689 8.90391 3.19081 8.28701 3.13472C7.10929 3.07864 5.70724 3.02256 4.75385 3.91987C3.80046 4.87326 3.91263 6.21922 3.96871 7.45303C4.02479 8.06993 4.02479 8.79899 3.91263 9.13548C3.80046 9.47197 3.23964 9.92063 2.79099 10.3132C1.94976 11.0983 0.828125 12.0517 0.828125 13.4538C0.828125 14.8558 1.94976 15.8092 2.79099 16.5944C3.23964 16.9869 3.74438 17.4356 3.91263 17.7721C4.08087 18.1086 4.02479 18.8376 3.96871 19.4545C3.91263 20.6323 3.85654 22.0343 4.75385 22.9877C5.70724 23.9411 7.05321 23.8289 8.28701 23.7728C8.90391 23.7168 9.63297 23.7168 9.96946 23.8289C10.306 23.9411 10.7546 24.5019 11.1472 24.9506C11.9323 25.7918 12.8857 26.9134 14.2878 26.9134C15.6898 26.9134 16.6432 25.7918 17.4283 24.9506C17.8209 24.5019 18.2696 23.9972 18.6061 23.8289C18.9426 23.6607 19.6716 23.7168 20.2885 23.7728C21.5223 23.8289 22.8683 23.9411 23.8217 22.9877C24.7751 22.0343 24.6629 20.6883 24.6068 19.4545C24.5507 18.8376 24.5507 18.1086 24.6629 17.7721C24.7751 17.4356 25.3359 16.9869 25.7845 16.5944C26.6258 15.8092 27.7474 14.8558 27.7474 13.4538C27.7474 12.0517 26.6258 11.0983 25.7845 10.3132ZM24.2703 14.8558C23.5974 15.4727 22.9244 16.0335 22.5879 16.8748C22.2514 17.716 22.3075 18.6694 22.3636 19.5667C22.4196 20.1836 22.4757 21.137 22.2514 21.3613C22.0271 21.5856 21.0737 21.5296 20.4568 21.4735C19.5595 21.4174 18.6061 21.3613 17.7648 21.6978C16.9797 22.0343 16.3628 22.7073 15.7459 23.3803C15.2412 23.9411 14.6243 24.6701 14.2878 24.6701C13.9513 24.6701 13.3344 23.9411 12.8857 23.4363C12.3249 22.7634 11.708 22.0904 10.8668 21.7539C10.362 21.5296 9.80122 21.4735 9.18432 21.4735C8.84783 21.4735 8.51134 21.4735 8.11876 21.5296C7.50186 21.5856 6.54847 21.6417 6.32415 21.4174C6.09982 21.1931 6.1559 20.2397 6.21198 19.6228C6.26806 18.7255 6.32414 17.7721 5.98765 16.9309C5.65116 16.1457 4.97818 15.5288 4.3052 14.9119C3.80046 14.4072 3.0714 13.7903 3.0714 13.4538C3.0714 13.1173 3.80046 12.5004 4.3052 12.0517C4.97818 11.4348 5.65116 10.874 5.98765 10.0328C6.32414 9.19156 6.26806 8.23817 6.21198 7.34086C6.1559 6.72396 6.09982 5.77057 6.32415 5.54624C6.54847 5.32192 7.50186 5.378 8.11876 5.43408C9.01607 5.49016 9.96946 5.54624 10.8107 5.20975C11.5958 4.87326 12.2127 4.20028 12.8296 3.5273C13.3344 2.96648 13.9513 2.23741 14.2878 2.23741C14.6243 2.23741 15.2412 2.96648 15.6898 3.47121C16.2506 4.1442 16.8675 4.81718 17.7088 5.15367C18.55 5.49016 19.5034 5.43408 20.4007 5.378C21.0176 5.32192 21.971 5.26583 22.1953 5.49016C22.4196 5.71449 22.3636 6.66788 22.3075 7.28478C22.2514 8.18209 22.1953 9.13548 22.5318 9.97671C22.8683 10.7619 23.5413 11.3788 24.2143 11.9957C24.719 12.4443 25.4481 13.0612 25.4481 13.3977C25.4481 13.7342 24.7751 14.4072 24.2703 14.8558Z" fill="white"/>
<path d="M10.4395 15.7158L16.5059 9.6494L18.0919 11.2354L12.0254 17.3018L10.4395 15.7158Z" fill="white"/>
<path d="M11.4842 12.3337C12.4134 12.3337 13.1667 11.5804 13.1667 10.6512C13.1667 9.72201 12.4134 8.96875 11.4842 8.96875C10.555 8.96875 9.80176 9.72201 9.80176 10.6512C9.80176 11.5804 10.555 12.3337 11.4842 12.3337Z" fill="white"/>
<path d="M17.0926 17.943C18.0218 17.943 18.7751 17.1898 18.7751 16.2606C18.7751 15.3314 18.0218 14.5781 17.0926 14.5781C16.1634 14.5781 15.4102 15.3314 15.4102 16.2606C15.4102 17.1898 16.1634 17.943 17.0926 17.943Z" fill="white"/>
</svg>
