<svg width="48" height="48" viewBox="0 0 48 48" fill="none" xmlns="http://www.w3.org/2000/svg">
<path d="M41.25 6.75019C35.5215 6.75019 30.045 4.96894 25.4123 1.59994L24.441 0.893437C24.1785 0.702188 23.8215 0.702188 23.559 0.893437L22.5877 1.59994C17.955 4.96894 12.4785 6.75019 6.75 6.75019C6.33525 6.75019 6 7.08619 6 7.50019V21.7067C6 32.0439 12.0255 41.6049 21.351 46.0644L23.6768 47.1767C23.7787 47.2254 23.8897 47.2502 24 47.2502C24.1103 47.2502 24.2212 47.2254 24.324 47.1767L26.6497 46.0644C35.9745 41.6049 42 32.0439 42 21.7067V7.50019C42 7.08619 41.6647 6.75019 41.25 6.75019ZM40.5 21.7067C40.5 31.4694 34.809 40.4994 26.0017 44.7107L24 45.6692L21.9982 44.7114C13.191 40.4994 7.5 31.4694 7.5 21.7067V8.24044C13.2743 8.09119 18.7822 6.22294 23.4697 2.81269L24 2.42719L24.5303 2.81269C29.2178 6.22219 34.7257 8.09119 40.5 8.24044V21.7067Z" fill="#FF5C00"/>
<path d="M11.25 24C11.25 31.0305 16.9695 36.75 24 36.75C31.0305 36.75 36.75 31.0305 36.75 24C36.75 16.9695 31.0305 11.25 24 11.25C16.9695 11.25 11.25 16.9695 11.25 24ZM35.25 24C35.25 30.2033 30.2033 35.25 24 35.25C17.7968 35.25 12.75 30.2033 12.75 24C12.75 17.7968 17.7968 12.75 24 12.75C30.2033 12.75 35.25 17.7968 35.25 24Z" fill="#FF5C00"/>
<path d="M17.6152 24.0349L22.0027 28.1834L30.3859 20.2568" stroke="#FF5C00" stroke-width="2" stroke-linecap="round" stroke-linejoin="round"/>
</svg>
