<svg width="48" height="48" viewBox="0 0 48 48" fill="none" xmlns="http://www.w3.org/2000/svg">
<path d="M38.0563 17.0288C33.9866 12.5339 31.5681 8.57707 30.2556 6.04912C28.8342 3.31099 28.3685 1.61308 28.3649 1.59957L27.9418 0L26.4307 0.674001C26.2541 0.752727 22.0791 2.65669 19.7398 7.33529C18.5655 9.68402 18.3306 12.299 18.3404 14.0791C18.3462 15.115 17.6122 16.0145 16.5953 16.2178C15.8824 16.3602 15.149 16.1386 14.6344 15.624L11.8197 12.8093L10.8515 14.1445C10.751 14.283 8.38469 17.5465 7.9539 18.1985C5.85026 21.3829 4.75336 25.0924 4.78179 28.9259C4.81989 34.0459 6.83335 38.8428 10.4513 42.433C14.069 46.0229 18.8812 48 24.0015 48C34.5994 47.9999 43.2214 39.3779 43.2214 28.7799C43.2215 24.9374 41.3389 20.6543 38.0563 17.0288ZM24.0016 45.185C19.6291 45.185 15.5211 43.4981 12.4342 40.4348C9.34732 37.3716 7.62943 33.2768 7.59687 28.905C7.57247 25.6323 8.50817 22.4666 10.3027 19.7502C10.5218 19.4186 11.4008 18.1924 12.1637 17.1343L12.644 17.6146C13.8256 18.7961 15.5088 19.3059 17.1476 18.9782C19.483 18.5111 21.1686 16.4443 21.1555 14.0637C21.1474 12.5904 21.332 10.4457 22.2577 8.59415C23.3844 6.34075 25.0688 4.86805 26.2393 4.04907C27.2979 6.7417 29.9814 12.3046 35.9697 18.9183C37.3037 20.3917 40.4066 24.302 40.4066 28.78C40.4066 37.8257 33.0472 45.185 24.0016 45.185Z" fill="#FF5C00"/>
<path d="M26.8552 23.8809L18.0293 36.8058H21.1497L29.9756 23.8809H26.8552Z" fill="#FF5C00"/>
<path d="M28.7371 29.7891C26.7799 29.7891 25.3027 31.1 25.3027 33.3896C25.3027 35.6976 26.7799 36.9901 28.7371 36.9901C30.6944 36.9901 32.1715 35.6976 32.1715 33.3896C32.1715 31.1 30.6943 29.7891 28.7371 29.7891ZM28.7371 34.9959C28.3309 34.9959 27.9247 34.6266 27.9247 33.3895C27.9247 32.1524 28.3309 31.7831 28.7371 31.7831C29.1433 31.7831 29.5495 32.1524 29.5495 33.3895C29.5495 34.6266 29.1433 34.9959 28.7371 34.9959Z" fill="#FF5C00"/>
<path d="M22.7008 27.2968C22.7008 25.0072 21.2237 23.6963 19.2664 23.6963C17.3091 23.6963 15.832 25.0072 15.832 27.2968C15.832 29.6048 17.3091 30.8973 19.2664 30.8973C21.2237 30.8973 22.7008 29.6048 22.7008 27.2968ZM18.454 27.2968C18.454 26.0597 18.8602 25.6903 19.2664 25.6903C19.6726 25.6903 20.0788 26.0597 20.0788 27.2968C20.0788 28.5339 19.6726 28.9032 19.2664 28.9032C18.8602 28.9032 18.454 28.5339 18.454 27.2968Z" fill="#FF5C00"/>
</svg>
