<svg width="289" height="85" viewBox="0 0 289 85" fill="none" xmlns="http://www.w3.org/2000/svg">
<g clip-path="url(#clip0_1_1205)">
<path d="M42.5 85C65.9721 85 85 65.9721 85 42.5C85 19.0279 65.9721 0 42.5 0C19.0279 0 0 19.0279 0 42.5C0 65.9721 19.0279 85 42.5 85Z" fill="#F6C863"/>
<path d="M10.3736 24.4707H56.0811C56.3708 24.4707 56.6486 24.5858 56.8535 24.7907C57.0584 24.9955 57.1734 25.2734 57.1734 25.5631V57.7967H9.28126V25.5664C9.28082 25.4227 9.30875 25.2803 9.36345 25.1474C9.41816 25.0144 9.49855 24.8936 9.60003 24.7918C9.70151 24.69 9.82208 24.6093 9.95483 24.5542C10.0876 24.4991 10.2299 24.4707 10.3736 24.4707Z" fill="#575B6D"/>
<path d="M54.4434 27.2031V52.3346H12.0137V27.2031H54.4434Z" fill="#69B0EE"/>
<path d="M60.4531 55.7295V56.798C60.4531 57.7872 60.0602 58.736 59.3607 59.4356C58.6611 60.1351 57.7124 60.528 56.7231 60.528H9.71875C9.23221 60.528 8.75044 60.4321 8.30103 60.2456C7.85161 60.0592 7.44338 59.786 7.09969 59.4416L7.07977 59.4217C6.38829 58.7281 6 57.7886 6 56.8093V55.7295C6 55.5534 6.06996 55.3845 6.1945 55.2599C6.31903 55.1354 6.48794 55.0654 6.66406 55.0654H27.9028C27.9752 55.0654 28.0446 55.0942 28.0958 55.1454C28.1469 55.1966 28.1757 55.266 28.1757 55.3384C28.1757 55.918 28.406 56.4738 28.8158 56.8837C29.2256 57.2935 29.7815 57.5238 30.3611 57.5238H36.098C36.6776 57.5238 37.2335 57.2935 37.6433 56.8837C38.0531 56.4738 38.2834 55.918 38.2834 55.3384C38.2834 55.266 38.3122 55.1966 38.3633 55.1454C38.4145 55.0942 38.4839 55.0654 38.5563 55.0654H59.7891C59.9652 55.0654 60.1341 55.1354 60.2586 55.2599C60.3832 55.3845 60.4531 55.5534 60.4531 55.7295Z" fill="#414451"/>
<path opacity="0.5" d="M41.9729 27.2002L33.257 52.335H32.1016L40.8174 27.2002H41.9729Z" fill="#EEEFEE"/>
<path opacity="0.5" d="M37.3401 27.2002L28.6243 52.335H24.4785L33.1943 27.2002H37.3401Z" fill="#EEEFEE"/>
</g>
<path d="M73.925 41.25C73.1917 41.25 72.5333 41.2167 71.95 41.15C71.3833 41.0833 70.7583 40.9583 70.075 40.775C69.3083 40.575 68.675 40.3167 68.175 40C67.675 39.6667 67.2583 39.2083 66.925 38.625C66.575 38.0417 66.4 37.35 66.4 36.55V29.425C66.4 26.1583 68.9083 24.525 73.925 24.525C75.2083 24.525 76.925 24.7083 79.075 25.075V28C77.1417 27.5333 75.4417 27.3 73.975 27.3C73.3583 27.3 72.875 27.3167 72.525 27.35C72.1917 27.3833 71.8417 27.4667 71.475 27.6C70.6917 27.8667 70.3 28.4583 70.3 29.375V36.275C70.3 37.7417 71.6417 38.475 74.325 38.475C75.475 38.475 77.0917 38.2333 79.175 37.75V40.7C77.3917 41.0667 75.6417 41.25 73.925 41.25ZM87.317 41.25C86.567 41.25 85.9503 41.225 85.467 41.175C84.9837 41.125 84.467 41.025 83.917 40.875C83.317 40.7083 82.8337 40.475 82.467 40.175C82.1003 39.8583 81.792 39.4167 81.542 38.85C81.292 38.3 81.167 37.6333 81.167 36.85V33.275C81.167 32.475 81.292 31.775 81.542 31.175C81.792 30.575 82.117 30.1083 82.517 29.775C82.867 29.4917 83.3253 29.2583 83.892 29.075C84.4753 28.875 85.042 28.75 85.592 28.7C86.2253 28.6667 86.8003 28.65 87.317 28.65C88.0837 28.65 88.692 28.675 89.142 28.725C89.6087 28.7583 90.117 28.8583 90.667 29.025C91.267 29.2083 91.7503 29.4583 92.117 29.775C92.5003 30.0917 92.8253 30.5417 93.092 31.125C93.342 31.725 93.467 32.4417 93.467 33.275V36.85C93.467 37.6 93.342 38.2583 93.092 38.825C92.8587 39.3917 92.5503 39.8333 92.167 40.15C91.8337 40.4333 91.3753 40.6667 90.792 40.85C90.2253 41.0167 89.667 41.125 89.117 41.175C88.617 41.225 88.017 41.25 87.317 41.25ZM87.317 38.975C88.0003 38.975 88.517 38.925 88.867 38.825C89.217 38.7083 89.4587 38.5333 89.592 38.3C89.742 38.0667 89.817 37.725 89.817 37.275V32.7C89.817 32.0333 89.642 31.5667 89.292 31.3C88.942 31.0333 88.2837 30.9 87.317 30.9C86.3503 30.9 85.692 31.0333 85.342 31.3C84.992 31.5667 84.817 32.0333 84.817 32.7V37.275C84.817 37.725 84.8837 38.0667 85.017 38.3C85.167 38.5333 85.417 38.7083 85.767 38.825C86.117 38.925 86.6337 38.975 87.317 38.975ZM96.3119 28.9H99.9619V30.375C100.195 29.225 101.387 28.65 103.537 28.65C104.67 28.65 105.529 28.8 106.112 29.1C106.695 29.3833 107.087 29.8333 107.287 30.45C107.487 29.8167 107.87 29.3583 108.437 29.075C109.02 28.7917 109.895 28.65 111.062 28.65C112.112 28.65 112.92 28.775 113.487 29.025C114.054 29.2583 114.445 29.625 114.662 30.125C114.895 30.625 115.012 31.2917 115.012 32.125V41H111.362V32.625C111.362 32.0917 111.329 31.7167 111.262 31.5C111.195 31.2667 111.045 31.1083 110.812 31.025C110.595 30.9417 110.212 30.9 109.662 30.9C108.979 30.9 108.487 30.9417 108.187 31.025C107.904 31.1083 107.712 31.2667 107.612 31.5C107.529 31.7167 107.487 32.0917 107.487 32.625V41H103.837V32.625C103.837 32.0917 103.804 31.7167 103.737 31.5C103.67 31.2667 103.52 31.1083 103.287 31.025C103.07 30.9417 102.687 30.9 102.137 30.9C101.454 30.9 100.962 30.9417 100.662 31.025C100.379 31.1083 100.187 31.2667 100.087 31.5C100.004 31.7167 99.9619 32.0917 99.9619 32.625V41H96.3119V28.9ZM118.211 28.9H121.661V30.1C121.878 29.5667 122.303 29.1917 122.936 28.975C123.57 28.7583 124.511 28.65 125.761 28.65C126.811 28.65 127.653 28.7333 128.286 28.9C128.936 29.0667 129.428 29.3333 129.761 29.7C130.078 30.0667 130.295 30.475 130.411 30.925C130.528 31.3583 130.586 31.9583 130.586 32.725V36.7C130.586 37.9 130.411 38.825 130.061 39.475C129.711 40.125 129.17 40.5833 128.436 40.85C127.72 41.1167 126.736 41.25 125.486 41.25C124.286 41.25 123.42 41.15 122.886 40.95C122.353 40.75 122.011 40.3583 121.861 39.775V46.2H118.211V28.9ZM124.361 38.975C125.078 38.975 125.62 38.925 125.986 38.825C126.353 38.725 126.603 38.55 126.736 38.3C126.87 38.05 126.936 37.675 126.936 37.175V32.7C126.936 32.15 126.878 31.7583 126.761 31.525C126.645 31.275 126.411 31.1083 126.061 31.025C125.711 30.9417 125.136 30.9 124.336 30.9C123.653 30.9 123.128 30.9583 122.761 31.075C122.411 31.1917 122.17 31.375 122.036 31.625C121.92 31.875 121.861 32.2333 121.861 32.7V37.175C121.861 37.675 121.92 38.05 122.036 38.3C122.17 38.55 122.411 38.725 122.761 38.825C123.111 38.925 123.645 38.975 124.361 38.975ZM144.607 41.25C143.057 41.25 141.141 41.1 138.857 40.8V37.825C141.691 38.2583 143.624 38.475 144.657 38.475C146.824 38.475 147.907 37.9167 147.907 36.8V35.75C147.907 35.2167 147.749 34.8083 147.432 34.525C147.132 34.2417 146.582 34.1 145.782 34.1H143.882C140.316 34.1 138.532 32.6833 138.532 29.85V28.65C138.532 27.2333 139.124 26.1917 140.307 25.525C141.491 24.8583 143.366 24.525 145.932 24.525C147.266 24.525 148.957 24.6333 151.007 24.85V27.75C148.491 27.45 146.757 27.3 145.807 27.3C144.491 27.3 143.607 27.4083 143.157 27.625C142.674 27.8583 142.432 28.225 142.432 28.725V29.875C142.432 30.725 143.149 31.15 144.582 31.15H146.532C148.382 31.15 149.724 31.4917 150.557 32.175C151.391 32.8583 151.807 33.9 151.807 35.3V36.375C151.807 38.3083 151.116 39.6167 149.732 40.3C149.066 40.65 148.324 40.8917 147.507 41.025C146.707 41.175 145.741 41.25 144.607 41.25ZM160.169 41.25C159.419 41.25 158.802 41.225 158.319 41.175C157.835 41.125 157.319 41.025 156.769 40.875C156.169 40.7083 155.685 40.475 155.319 40.175C154.952 39.8583 154.644 39.4167 154.394 38.85C154.144 38.3 154.019 37.6333 154.019 36.85V33.275C154.019 32.475 154.144 31.775 154.394 31.175C154.644 30.575 154.969 30.1083 155.369 29.775C155.719 29.4917 156.177 29.2583 156.744 29.075C157.327 28.875 157.894 28.75 158.444 28.7C159.077 28.6667 159.652 28.65 160.169 28.65C160.935 28.65 161.544 28.675 161.994 28.725C162.46 28.7583 162.969 28.8583 163.519 29.025C164.119 29.2083 164.602 29.4583 164.969 29.775C165.352 30.0917 165.677 30.5417 165.944 31.125C166.194 31.725 166.319 32.4417 166.319 33.275V36.85C166.319 37.6 166.194 38.2583 165.944 38.825C165.71 39.3917 165.402 39.8333 165.019 40.15C164.685 40.4333 164.227 40.6667 163.644 40.85C163.077 41.0167 162.519 41.125 161.969 41.175C161.469 41.225 160.869 41.25 160.169 41.25ZM160.169 38.975C160.852 38.975 161.369 38.925 161.719 38.825C162.069 38.7083 162.31 38.5333 162.444 38.3C162.594 38.0667 162.669 37.725 162.669 37.275V32.7C162.669 32.0333 162.494 31.5667 162.144 31.3C161.794 31.0333 161.135 30.9 160.169 30.9C159.202 30.9 158.544 31.0333 158.194 31.3C157.844 31.5667 157.669 32.0333 157.669 32.7V37.275C157.669 37.725 157.735 38.0667 157.869 38.3C158.019 38.5333 158.269 38.7083 158.619 38.825C158.969 38.925 159.485 38.975 160.169 38.975ZM169.263 23.5H172.913V41H169.263V23.5ZM180.419 41.25C178.869 41.25 177.777 40.975 177.144 40.425C176.527 39.8583 176.219 38.975 176.219 37.775V28.9H179.869V37.275C179.869 37.7417 179.911 38.0917 179.994 38.325C180.094 38.5583 180.277 38.725 180.544 38.825C180.827 38.925 181.252 38.975 181.819 38.975C182.536 38.975 183.061 38.9333 183.394 38.85C183.727 38.75 183.952 38.5833 184.069 38.35C184.186 38.1167 184.244 37.7583 184.244 37.275V28.9H187.894V41H184.294V39.525C184.027 40.675 182.736 41.25 180.419 41.25ZM197.137 41.25C196.521 41.25 196.004 41.225 195.587 41.175C195.171 41.125 194.754 41.025 194.337 40.875C193.871 40.725 193.487 40.5167 193.187 40.25C192.904 39.9833 192.671 39.6167 192.487 39.15C192.287 38.6667 192.187 38.1083 192.187 37.475V31.15H189.737V28.9H192.187V25.4H195.837V28.9H199.162V31.15H195.837V36.85C195.837 37.4333 195.887 37.875 195.987 38.175C196.087 38.4583 196.279 38.6667 196.562 38.8C196.846 38.9167 197.279 38.975 197.862 38.975C198.096 38.975 198.529 38.9333 199.162 38.85V41.125C198.379 41.2083 197.704 41.25 197.137 41.25ZM201.368 24.525H205.018V27.475H201.368V24.525ZM201.368 28.9H205.018V41H201.368V28.9ZM214.124 41.25C213.374 41.25 212.757 41.225 212.274 41.175C211.79 41.125 211.274 41.025 210.724 40.875C210.124 40.7083 209.64 40.475 209.274 40.175C208.907 39.8583 208.599 39.4167 208.349 38.85C208.099 38.3 207.974 37.6333 207.974 36.85V33.275C207.974 32.475 208.099 31.775 208.349 31.175C208.599 30.575 208.924 30.1083 209.324 29.775C209.674 29.4917 210.132 29.2583 210.699 29.075C211.282 28.875 211.849 28.75 212.399 28.7C213.032 28.6667 213.607 28.65 214.124 28.65C214.89 28.65 215.499 28.675 215.949 28.725C216.415 28.7583 216.924 28.8583 217.474 29.025C218.074 29.2083 218.557 29.4583 218.924 29.775C219.307 30.0917 219.632 30.5417 219.899 31.125C220.149 31.725 220.274 32.4417 220.274 33.275V36.85C220.274 37.6 220.149 38.2583 219.899 38.825C219.665 39.3917 219.357 39.8333 218.974 40.15C218.64 40.4333 218.182 40.6667 217.599 40.85C217.032 41.0167 216.474 41.125 215.924 41.175C215.424 41.225 214.824 41.25 214.124 41.25ZM214.124 38.975C214.807 38.975 215.324 38.925 215.674 38.825C216.024 38.7083 216.265 38.5333 216.399 38.3C216.549 38.0667 216.624 37.725 216.624 37.275V32.7C216.624 32.0333 216.449 31.5667 216.099 31.3C215.749 31.0333 215.09 30.9 214.124 30.9C213.157 30.9 212.499 31.0333 212.149 31.3C211.799 31.5667 211.624 32.0333 211.624 32.7V37.275C211.624 37.725 211.69 38.0667 211.824 38.3C211.974 38.5333 212.224 38.7083 212.574 38.825C212.924 38.925 213.44 38.975 214.124 38.975ZM223.119 28.9H226.719V30.375C227.002 29.225 228.294 28.65 230.594 28.65C232.144 28.65 233.227 28.9333 233.844 29.5C234.477 30.05 234.794 30.925 234.794 32.125V41H231.144V32.6C231.144 32.1333 231.094 31.7833 230.994 31.55C230.91 31.3167 230.727 31.15 230.444 31.05C230.177 30.95 229.76 30.9 229.194 30.9C228.477 30.9 227.952 30.95 227.619 31.05C227.285 31.1333 227.06 31.2917 226.944 31.525C226.827 31.7583 226.769 32.1167 226.769 32.6V41H223.119V28.9ZM66.05 48.265H68.39V52.105C68.83 52.105 69.185 52.025 69.455 51.865C69.725 51.695 70.02 51.375 70.34 50.905L72.17 48.265H74.795L72.695 51.19C72.375 51.64 72.08 51.985 71.81 52.225C71.55 52.455 71.225 52.645 70.835 52.795V52.825C71.335 52.945 71.75 53.16 72.08 53.47C72.42 53.78 72.75 54.23 73.07 54.82L74.795 58H72.17L70.58 55.135C70.37 54.755 70.165 54.47 69.965 54.28C69.775 54.08 69.56 53.945 69.32 53.875C69.08 53.805 68.77 53.77 68.39 53.77V58H66.05V48.265ZM79.2691 58.15C78.8191 58.15 78.4491 58.135 78.1591 58.105C77.8691 58.075 77.5591 58.015 77.2291 57.925C76.8691 57.825 76.5791 57.685 76.3591 57.505C76.1391 57.315 75.9541 57.05 75.8041 56.71C75.6541 56.38 75.5791 55.98 75.5791 55.51V53.365C75.5791 52.885 75.6541 52.465 75.8041 52.105C75.9541 51.745 76.1491 51.465 76.3891 51.265C76.5991 51.095 76.8741 50.955 77.2141 50.845C77.5641 50.725 77.9041 50.65 78.2341 50.62C78.6141 50.6 78.9591 50.59 79.2691 50.59C79.7291 50.59 80.0941 50.605 80.3641 50.635C80.6441 50.655 80.9491 50.715 81.2791 50.815C81.6391 50.925 81.9291 51.075 82.1491 51.265C82.3791 51.455 82.5741 51.725 82.7341 52.075C82.8841 52.435 82.9591 52.865 82.9591 53.365V55.51C82.9591 55.96 82.8841 56.355 82.7341 56.695C82.5941 57.035 82.4091 57.3 82.1791 57.49C81.9791 57.66 81.7041 57.8 81.3541 57.91C81.0141 58.01 80.6791 58.075 80.3491 58.105C80.0491 58.135 79.6891 58.15 79.2691 58.15ZM79.2691 56.785C79.6791 56.785 79.9891 56.755 80.1991 56.695C80.4091 56.625 80.5541 56.52 80.6341 56.38C80.7241 56.24 80.7691 56.035 80.7691 55.765V53.02C80.7691 52.62 80.6641 52.34 80.4541 52.18C80.2441 52.02 79.8491 51.94 79.2691 51.94C78.6891 51.94 78.2941 52.02 78.0841 52.18C77.8741 52.34 77.7691 52.62 77.7691 53.02V55.765C77.7691 56.035 77.8091 56.24 77.8891 56.38C77.9791 56.52 78.1291 56.625 78.3391 56.695C78.5491 56.755 78.8591 56.785 79.2691 56.785ZM84.6661 50.74H87.4561L89.2261 55.75L91.1011 50.74H93.7411V58H91.7611V53.32H91.6711L89.9161 58H88.3711L86.6761 53.32H86.5861V58H84.6661V50.74ZM95.667 50.74H102.702V58H100.512V52.135H97.857V58H95.667V50.74ZM104.617 50.74H106.807V53.17H107.647C108.657 53.17 109.407 53.225 109.897 53.335C110.397 53.445 110.737 53.64 110.917 53.92C111.107 54.2 111.202 54.63 111.202 55.21V56.065C111.202 56.755 110.917 57.25 110.347 57.55C109.777 57.85 108.892 58 107.692 58H104.617V50.74ZM107.587 56.635C107.987 56.635 108.282 56.61 108.472 56.56C108.662 56.5 108.787 56.41 108.847 56.29C108.907 56.17 108.937 55.99 108.937 55.75V55.345C108.937 55.125 108.897 54.96 108.817 54.85C108.747 54.73 108.617 54.65 108.427 54.61C108.247 54.57 107.977 54.55 107.617 54.55H106.777V56.635H107.587ZM120.08 58.15C119.34 58.15 118.71 58.09 118.19 57.97C117.68 57.84 117.265 57.585 116.945 57.205C116.625 56.815 116.465 56.25 116.465 55.51V54.97H115.04V58H112.85V50.74H115.04V53.53H116.465V53.365C116.465 52.525 116.645 51.905 117.005 51.505C117.375 51.095 117.805 50.84 118.295 50.74C118.795 50.64 119.39 50.59 120.08 50.59C120.81 50.59 121.43 50.655 121.94 50.785C122.46 50.915 122.88 51.185 123.2 51.595C123.53 51.995 123.695 52.585 123.695 53.365V55.51C123.695 56.31 123.515 56.905 123.155 57.295C122.795 57.675 122.365 57.91 121.865 58C121.375 58.1 120.78 58.15 120.08 58.15ZM120.08 56.785C120.64 56.785 121.015 56.715 121.205 56.575C121.405 56.425 121.505 56.155 121.505 55.765V53.02C121.505 52.62 121.405 52.34 121.205 52.18C121.005 52.02 120.63 51.94 120.08 51.94C119.53 51.94 119.155 52.02 118.955 52.18C118.755 52.34 118.655 52.62 118.655 53.02V55.765C118.655 56.155 118.75 56.425 118.94 56.575C119.14 56.715 119.52 56.785 120.08 56.785ZM127.143 52.18H124.743V50.74H131.733V52.18H129.333V58H127.143V52.18ZM136.636 58.15C134.066 58.15 132.781 57.365 132.781 55.795V53.185C132.781 52.275 133.071 51.615 133.651 51.205C134.241 50.795 135.146 50.59 136.366 50.59C137.516 50.59 138.356 50.79 138.886 51.19C139.426 51.58 139.696 52.245 139.696 53.185V54.955H134.986V55.615C134.986 56.035 135.136 56.335 135.436 56.515C135.736 56.695 136.276 56.785 137.056 56.785C137.776 56.785 138.586 56.68 139.486 56.47V57.865C138.596 58.055 137.646 58.15 136.636 58.15ZM137.611 53.71V52.66C137.611 52.42 137.511 52.24 137.311 52.12C137.121 52 136.796 51.94 136.336 51.94C135.806 51.94 135.451 52 135.271 52.12C135.081 52.25 134.986 52.43 134.986 52.66V53.71H137.611ZM141.37 50.74H143.44V51.46C143.57 51.14 143.825 50.915 144.205 50.785C144.585 50.655 145.15 50.59 145.9 50.59C146.53 50.59 147.035 50.64 147.415 50.74C147.805 50.84 148.1 51 148.3 51.22C148.49 51.44 148.62 51.685 148.69 51.955C148.76 52.215 148.795 52.575 148.795 53.035V55.42C148.795 56.14 148.69 56.695 148.48 57.085C148.27 57.475 147.945 57.75 147.505 57.91C147.075 58.07 146.485 58.15 145.735 58.15C145.015 58.15 144.495 58.09 144.175 57.97C143.855 57.85 143.65 57.615 143.56 57.265V61.12H141.37V50.74ZM145.06 56.785C145.49 56.785 145.815 56.755 146.035 56.695C146.255 56.635 146.405 56.53 146.485 56.38C146.565 56.23 146.605 56.005 146.605 55.705V53.02C146.605 52.69 146.57 52.455 146.5 52.315C146.43 52.165 146.29 52.065 146.08 52.015C145.87 51.965 145.525 51.94 145.045 51.94C144.635 51.94 144.32 51.975 144.1 52.045C143.89 52.115 143.745 52.225 143.665 52.375C143.595 52.525 143.56 52.74 143.56 53.02V55.705C143.56 56.005 143.595 56.23 143.665 56.38C143.745 56.53 143.89 56.635 144.1 56.695C144.31 56.755 144.63 56.785 145.06 56.785ZM150.511 50.74H152.701V53.53H155.446V50.74H157.636V58H155.446V54.97H152.701V58H150.511V50.74ZM159.549 50.74H161.739V53.17H162.489C163.499 53.17 164.239 53.225 164.709 53.335C165.189 53.445 165.514 53.64 165.684 53.92C165.864 54.19 165.954 54.62 165.954 55.21V56.065C165.954 56.765 165.679 57.265 165.129 57.565C164.589 57.855 163.724 58 162.534 58H159.549V50.74ZM167.139 50.74H169.329V58H167.139V50.74ZM162.429 56.635C162.829 56.635 163.124 56.61 163.314 56.56C163.504 56.5 163.629 56.41 163.689 56.29C163.749 56.17 163.779 55.99 163.779 55.75V55.345C163.779 55.125 163.739 54.96 163.659 54.85C163.589 54.73 163.459 54.65 163.269 54.61C163.089 54.57 162.819 54.55 162.459 54.55H161.709V56.635H162.429ZM171.253 50.74H173.443V55.48L176.308 50.74H178.498V58H176.308V53.125L173.443 58H171.253V50.74ZM174.883 49.855C174.083 49.855 173.448 49.655 172.978 49.255C172.508 48.855 172.278 48.32 172.288 47.65H173.833C173.863 48.05 173.963 48.345 174.133 48.535C174.303 48.725 174.553 48.82 174.883 48.82C175.223 48.82 175.473 48.73 175.633 48.55C175.803 48.36 175.903 48.06 175.933 47.65H177.478C177.498 48.31 177.268 48.845 176.788 49.255C176.318 49.655 175.683 49.855 174.883 49.855ZM183.88 50.74H186.67L188.44 55.75L190.315 50.74H192.955V58H190.975V53.32H190.885L189.13 58H187.585L185.89 53.32H185.8V58H183.88V50.74ZM196.936 58.15C196.256 58.15 195.746 58.09 195.406 57.97C195.076 57.84 194.841 57.615 194.701 57.295C194.571 56.965 194.506 56.475 194.506 55.825C194.506 55.245 194.576 54.79 194.716 54.46C194.866 54.13 195.101 53.895 195.421 53.755C195.751 53.605 196.201 53.53 196.771 53.53H199.231V53.035C199.231 52.725 199.186 52.495 199.096 52.345C199.016 52.195 198.861 52.09 198.631 52.03C198.411 51.97 198.076 51.94 197.626 51.94C197.006 51.94 196.156 52 195.076 52.12V50.74C195.866 50.64 196.791 50.59 197.851 50.59C198.781 50.59 199.496 50.66 199.996 50.8C200.506 50.94 200.871 51.18 201.091 51.52C201.311 51.86 201.421 52.355 201.421 53.005V58H199.276V57.34C199.106 57.63 198.876 57.835 198.586 57.955C198.296 58.085 197.746 58.15 196.936 58.15ZM197.791 56.785C198.231 56.785 198.546 56.77 198.736 56.74C198.876 56.72 198.971 56.69 199.021 56.65C199.081 56.61 199.131 56.545 199.171 56.455C199.211 56.385 199.231 56.28 199.231 56.14V54.73H197.731C197.391 54.73 197.151 54.755 197.011 54.805C196.871 54.845 196.776 54.935 196.726 55.075C196.676 55.205 196.651 55.44 196.651 55.78C196.651 56.11 196.676 56.34 196.726 56.47C196.776 56.6 196.871 56.685 197.011 56.725C197.161 56.765 197.421 56.785 197.791 56.785ZM206.888 58.15C206.508 58.15 206.208 58.14 205.988 58.12C205.768 58.11 205.498 58.085 205.178 58.045C204.858 58.005 204.593 57.935 204.383 57.835C204.183 57.735 203.973 57.585 203.753 57.385C203.343 57.045 203.138 56.465 203.138 55.645V53.23C203.138 52.57 203.288 52.02 203.588 51.58C203.698 51.42 203.858 51.275 204.068 51.145C204.288 51.005 204.508 50.895 204.728 50.815C204.908 50.755 205.148 50.705 205.448 50.665C205.748 50.625 206.013 50.6 206.243 50.59H207.038C207.598 50.59 208.333 50.68 209.243 50.86V52.3C208.213 52.06 207.423 51.94 206.873 51.94C205.863 51.94 205.358 52.28 205.358 52.96V55.63C205.358 56.4 205.913 56.785 207.023 56.785C207.563 56.785 208.338 56.675 209.348 56.455V57.895C208.438 58.065 207.618 58.15 206.888 58.15ZM212.324 52.18H209.924V50.74H216.914V52.18H214.514V58H212.324V52.18ZM221.817 58.15C219.247 58.15 217.962 57.365 217.962 55.795V53.185C217.962 52.275 218.252 51.615 218.832 51.205C219.422 50.795 220.327 50.59 221.547 50.59C222.697 50.59 223.537 50.79 224.067 51.19C224.607 51.58 224.877 52.245 224.877 53.185V54.955H220.167V55.615C220.167 56.035 220.317 56.335 220.617 56.515C220.917 56.695 221.457 56.785 222.237 56.785C222.957 56.785 223.767 56.68 224.667 56.47V57.865C223.777 58.055 222.827 58.15 221.817 58.15ZM222.792 53.71V52.66C222.792 52.42 222.692 52.24 222.492 52.12C222.302 52 221.977 51.94 221.517 51.94C220.987 51.94 220.632 52 220.452 52.12C220.262 52.25 220.167 52.43 220.167 52.66V53.71H222.792ZM226.551 50.74H228.621V51.46C228.751 51.14 229.006 50.915 229.386 50.785C229.766 50.655 230.331 50.59 231.081 50.59C231.711 50.59 232.216 50.64 232.596 50.74C232.986 50.84 233.281 51 233.481 51.22C233.671 51.44 233.801 51.685 233.871 51.955C233.941 52.215 233.976 52.575 233.976 53.035V55.42C233.976 56.14 233.871 56.695 233.661 57.085C233.451 57.475 233.126 57.75 232.686 57.91C232.256 58.07 231.666 58.15 230.916 58.15C230.196 58.15 229.676 58.09 229.356 57.97C229.036 57.85 228.831 57.615 228.741 57.265V61.12H226.551V50.74ZM230.241 56.785C230.671 56.785 230.996 56.755 231.216 56.695C231.436 56.635 231.586 56.53 231.666 56.38C231.746 56.23 231.786 56.005 231.786 55.705V53.02C231.786 52.69 231.751 52.455 231.681 52.315C231.611 52.165 231.471 52.065 231.261 52.015C231.051 51.965 230.706 51.94 230.226 51.94C229.816 51.94 229.501 51.975 229.281 52.045C229.071 52.115 228.926 52.225 228.846 52.375C228.776 52.525 228.741 52.74 228.741 53.02V55.705C228.741 56.005 228.776 56.23 228.846 56.38C228.926 56.53 229.071 56.635 229.281 56.695C229.491 56.755 229.811 56.785 230.241 56.785ZM239.148 50.74H241.338V53.53H244.083V50.74H246.273V58H244.083V54.97H241.338V58H239.148V50.74ZM250.242 58.15C249.562 58.15 249.052 58.09 248.712 57.97C248.382 57.84 248.147 57.615 248.007 57.295C247.877 56.965 247.812 56.475 247.812 55.825C247.812 55.245 247.882 54.79 248.022 54.46C248.172 54.13 248.407 53.895 248.727 53.755C249.057 53.605 249.507 53.53 250.077 53.53H252.537V53.035C252.537 52.725 252.492 52.495 252.402 52.345C252.322 52.195 252.167 52.09 251.937 52.03C251.717 51.97 251.382 51.94 250.932 51.94C250.312 51.94 249.462 52 248.382 52.12V50.74C249.172 50.64 250.097 50.59 251.157 50.59C252.087 50.59 252.802 50.66 253.302 50.8C253.812 50.94 254.177 51.18 254.397 51.52C254.617 51.86 254.727 52.355 254.727 53.005V58H252.582V57.34C252.412 57.63 252.182 57.835 251.892 57.955C251.602 58.085 251.052 58.15 250.242 58.15ZM251.097 56.785C251.537 56.785 251.852 56.77 252.042 56.74C252.182 56.72 252.277 56.69 252.327 56.65C252.387 56.61 252.437 56.545 252.477 56.455C252.517 56.385 252.537 56.28 252.537 56.14V54.73H251.037C250.697 54.73 250.457 54.755 250.317 54.805C250.177 54.845 250.082 54.935 250.032 55.075C249.982 55.205 249.957 55.44 249.957 55.78C249.957 56.11 249.982 56.34 250.032 56.47C250.082 56.6 250.177 56.685 250.317 56.725C250.467 56.765 250.727 56.785 251.097 56.785ZM259.45 56.56H259.885C260.085 56.56 260.28 56.425 260.47 56.155C260.67 55.875 260.84 55.385 260.98 54.685C261.12 53.975 261.19 53.025 261.19 51.835V50.74H266.83V56.56H267.955V60.01H266.155V58H261.445V60.01H259.45V56.56ZM264.64 56.605V52.12H262.99V52.315C262.99 53.325 262.915 54.195 262.765 54.925C262.615 55.655 262.4 56.215 262.12 56.605H264.64ZM272.76 58.15C272.31 58.15 271.94 58.135 271.65 58.105C271.36 58.075 271.05 58.015 270.72 57.925C270.36 57.825 270.07 57.685 269.85 57.505C269.63 57.315 269.445 57.05 269.295 56.71C269.145 56.38 269.07 55.98 269.07 55.51V53.365C269.07 52.885 269.145 52.465 269.295 52.105C269.445 51.745 269.64 51.465 269.88 51.265C270.09 51.095 270.365 50.955 270.705 50.845C271.055 50.725 271.395 50.65 271.725 50.62C272.105 50.6 272.45 50.59 272.76 50.59C273.22 50.59 273.585 50.605 273.855 50.635C274.135 50.655 274.44 50.715 274.77 50.815C275.13 50.925 275.42 51.075 275.64 51.265C275.87 51.455 276.065 51.725 276.225 52.075C276.375 52.435 276.45 52.865 276.45 53.365V55.51C276.45 55.96 276.375 56.355 276.225 56.695C276.085 57.035 275.9 57.3 275.67 57.49C275.47 57.66 275.195 57.8 274.845 57.91C274.505 58.01 274.17 58.075 273.84 58.105C273.54 58.135 273.18 58.15 272.76 58.15ZM272.76 56.785C273.17 56.785 273.48 56.755 273.69 56.695C273.9 56.625 274.045 56.52 274.125 56.38C274.215 56.24 274.26 56.035 274.26 55.765V53.02C274.26 52.62 274.155 52.34 273.945 52.18C273.735 52.02 273.34 51.94 272.76 51.94C272.18 51.94 271.785 52.02 271.575 52.18C271.365 52.34 271.26 52.62 271.26 53.02V55.765C271.26 56.035 271.3 56.24 271.38 56.38C271.47 56.52 271.62 56.625 271.83 56.695C272.04 56.755 272.35 56.785 272.76 56.785ZM278.157 50.74H280.947L282.717 55.75L284.592 50.74H287.232V58H285.252V53.32H285.162L283.407 58H281.862L280.167 53.32H280.077V58H278.157V50.74Z" fill="white"/>
<defs>
<clipPath id="clip0_1_1205">
<rect width="85" height="85" fill="white"/>
</clipPath>
</defs>
</svg>
