<svg width="31" height="28" viewBox="0 0 31 28" fill="none" xmlns="http://www.w3.org/2000/svg">
<path d="M28.1417 7.57536H26.2988C25.6953 6.13969 24.7963 4.81585 23.6575 3.71204C21.8677 1.97704 19.5503 0.846532 17.1326 0.528738C13.1261 0.00212103 9.19936 1.53657 6.62877 4.63336C5.89107 5.5221 5.29075 6.51665 4.8476 7.57536H2.99941C1.52108 7.57536 0.318359 8.77808 0.318359 10.2564V13.8311C0.318359 15.3095 1.52108 16.5122 2.99941 16.5122H6.66053L6.27767 15.3409C5.162 11.9274 5.79127 8.44081 8.00409 5.77495C10.18 3.15348 13.5056 1.85478 16.8996 2.30085C21.1509 2.85964 24.5932 6.19832 25.2705 10.42C25.7327 13.3007 24.9263 16.2116 23.0581 18.4064C21.1856 20.6063 18.4615 21.8703 15.5843 21.8743C14.0984 21.8763 12.8896 23.0791 12.8896 24.5553C12.8896 26.0337 14.0923 27.2364 15.5706 27.2364C17.0489 27.2364 18.2516 26.0337 18.2516 24.5553V23.348C20.6324 22.7826 22.7967 21.4712 24.4192 19.5649C25.2074 18.639 25.8349 17.6159 26.2951 16.5121H28.1417C29.62 16.5121 30.8227 15.3094 30.8227 13.8311V10.2564C30.8227 8.77808 29.62 7.57536 28.1417 7.57536ZM4.25443 14.7248H2.99941C2.50663 14.7248 2.10572 14.3239 2.10572 13.8311V10.2564C2.10572 9.76364 2.50663 9.36273 2.99941 9.36273H4.2651C4.23328 9.49666 4.20385 9.63131 4.17692 9.76632C3.85073 11.4007 3.87724 13.0638 4.25443 14.7248ZM16.4642 24.5553C16.4642 25.0481 16.0633 25.449 15.5705 25.449C15.0778 25.449 14.6769 25.0481 14.6769 24.5553C14.6769 24.0632 15.085 23.6623 15.5867 23.6616C15.8806 23.6612 16.1735 23.6497 16.4642 23.6273V24.5553ZM29.0354 13.8311C29.0354 14.3239 28.6344 14.7248 28.1417 14.7248H26.8754C27.2302 13.2324 27.2847 11.6918 27.0352 10.1368C26.9936 9.87713 26.9419 9.61898 26.8815 9.36273H28.1417C28.6344 9.36273 29.0354 9.76364 29.0354 10.2564V13.8311Z" fill="white"/>
<path d="M11.1016 11.1494H12.8889V12.9368H11.1016V11.1494Z" fill="white"/>
<path d="M14.6768 11.1494H16.4641V12.9368H14.6768V11.1494Z" fill="white"/>
<path d="M18.252 11.1494H20.0393V12.9368H18.252V11.1494Z" fill="white"/>
<path d="M7.52734 18.3009V20.0882H15.5705C20.0055 20.0882 23.6136 16.4801 23.6136 12.0451C23.6136 7.61011 20.0055 4.00195 15.5705 4.00195C11.1355 4.00195 7.52734 7.61011 7.52734 12.0451C7.52734 13.8527 8.13439 15.6003 9.24494 17.0133C9.0295 17.7666 8.34161 18.3009 7.52734 18.3009ZM15.5705 5.78932C19.0199 5.78932 21.8263 8.59566 21.8263 12.0451C21.8263 15.4945 19.0199 18.3009 15.5705 18.3009H10.624C10.8801 17.8577 11.0396 17.3616 11.0871 16.8429L11.1222 16.4602L10.8685 16.1716C9.86659 15.0308 9.31471 13.5653 9.31471 12.0451C9.31471 8.59566 12.121 5.78932 15.5705 5.78932Z" fill="white"/>
</svg>
