<svg width="48" height="48" viewBox="0 0 48 48" fill="none" xmlns="http://www.w3.org/2000/svg">
<g clip-path="url(#clip0_1_1161)">
<path d="M23.7226 38.1317C23.4666 38.1317 23.2106 38.0337 23.0146 37.8397L10.1606 24.9857C9.78459 24.6097 9.76859 24.0077 10.1206 23.6117L19.7546 12.8197C26.4886 4.9417 37.4546 -0.156296 47.0166 0.00570425C47.5506 0.0177042 47.9806 0.447704 47.9926 0.981704C48.2146 10.5497 43.0586 21.5097 35.1606 28.2577L24.3866 37.8777C24.1986 38.0477 23.9586 38.1317 23.7226 38.1317ZM12.2426 24.2397L23.7606 35.7577L33.8466 26.7537C41.0586 20.5897 45.8486 10.7657 45.9966 2.0037C37.2346 2.1497 27.4126 6.9397 21.2606 14.1357L12.2426 24.2397Z" fill="#FF5C00"/>
<path d="M27.5519 45.4518C27.4559 45.4518 27.3579 45.4378 27.2659 45.4078C26.9059 45.2878 26.6099 45.0119 26.5579 44.6358L25.1859 35.0618C25.1079 34.5158 25.4879 34.0098 26.0339 33.9298C26.5799 33.8438 27.0859 34.2298 27.1659 34.7778L28.2379 42.2578C31.7419 38.0678 33.6899 32.7558 33.6899 27.3398C33.6899 26.7878 34.1379 26.3398 34.6899 26.3398C35.2419 26.3398 35.6899 26.7878 35.6899 27.3398C35.6899 33.9658 33.0059 40.4518 28.3259 45.1298C28.1259 45.3298 27.8339 45.4518 27.5519 45.4518Z" fill="#FF5C00"/>
<path d="M13.0815 22.8236C13.0355 22.8236 12.9875 22.8216 12.9395 22.8136L3.36548 21.4416C2.98948 21.3876 2.67548 21.1256 2.55748 20.7636C2.43948 20.4036 2.53548 20.0056 2.80548 19.7396C7.55149 14.9936 14.0355 12.3096 20.6615 12.3096C21.2135 12.3096 21.6615 12.7576 21.6615 13.3096C21.6615 13.8616 21.2135 14.3096 20.6615 14.3096C15.2195 14.3096 9.87949 16.2756 5.73348 19.7596L13.2235 20.8336C13.7695 20.9136 14.1495 21.4176 14.0715 21.9656C13.9975 22.4636 13.5695 22.8236 13.0815 22.8236Z" fill="#FF5C00"/>
<path d="M34.2665 18.7319C32.9845 18.7319 31.7045 18.2439 30.7305 17.2699C28.7825 15.3199 28.7825 12.1479 30.7305 10.1979C32.6805 8.24785 35.8525 8.24785 37.8025 10.1979C39.7505 12.1479 39.7505 15.3199 37.8025 17.2699C36.8265 18.2459 35.5465 18.7319 34.2665 18.7319ZM34.2665 10.7359C33.4985 10.7359 32.7285 11.0279 32.1445 11.6119C30.9765 12.7819 30.9765 14.6859 32.1445 15.8559C33.3145 17.0239 35.2185 17.0219 36.3885 15.8559C37.5565 14.6859 37.5565 12.7819 36.3885 11.6119C35.8025 11.0299 35.0345 10.7359 34.2665 10.7359ZM37.0945 16.5639H37.1145H37.0945Z" fill="#FF5C00"/>
<path d="M1.00043 48.0002C0.738431 48.0002 0.484431 47.8982 0.292431 47.7082C0.0324309 47.4482 -0.0635691 47.0662 0.0424309 46.7142C0.370431 45.6202 3.30843 35.9522 5.44843 33.8122C7.85843 31.4022 11.7804 31.4002 14.1904 33.8122C16.6004 36.2222 16.6004 40.1442 14.1904 42.5542C12.0504 44.6942 2.38243 47.6322 1.28843 47.9602C1.19243 47.9862 1.09643 48.0002 1.00043 48.0002ZM9.82043 34.0022C8.74843 34.0022 7.67843 34.4102 6.86243 35.2242C5.70843 36.3802 3.78843 41.5422 2.52043 45.4802C6.45643 44.2122 11.6204 42.2922 12.7744 41.1382C14.4044 39.5082 14.4044 36.8542 12.7744 35.2242C11.9604 34.4102 10.8904 34.0022 9.82043 34.0022Z" fill="#FF5C00"/>
</g>
<defs>
<clipPath id="clip0_1_1161">
<rect width="48" height="48" fill="white"/>
</clipPath>
</defs>
</svg>
